#N canvas 254 327 430 484 10;
#X obj 77 166 soundfiler;
#X obj 183 93 openpanel;
#X floatatom 77 189 8 0 0 1 length-samples - -;
#X obj 65 275 /;
#X obj 80 252 samplerate~;
#X obj 80 232 loadbang;
#X floatatom 65 296 8 0 0 1 length-seconds - -;
#X obj 90 208 outlet;
#X obj 65 315 outlet;
#X obj 103 54 inlet;
#X obj 183 48 inlet;
#X obj 58 62 inlet;
#X text 6 63 filepath;
#X text 180 35 bang to navigate for file;
#X text 87 39 array name;
#X msg 180 70 symbol ~/desktop/biets;
#X obj 77 120 pack s s;
#X msg 77 143 read -resize \$1 \$2-L \$2-R;
#X connect 0 0 2 0;
#X connect 1 0 16 0;
#X connect 2 0 3 0;
#X connect 2 0 7 0;
#X connect 3 0 6 0;
#X connect 4 0 3 1;
#X connect 5 0 4 0;
#X connect 6 0 8 0;
#X connect 9 0 16 1;
#X connect 10 0 15 0;
#X connect 11 0 16 0;
#X connect 15 0 1 0;
#X connect 16 0 17 0;
#X connect 17 0 0 0;
#X coords 0 484 1 483 67 45 0;
