#N canvas 306 58 978 671 10;
#X obj 422 416 bng 15 250 50 0 \$1_rec_srt empty rec_srt 17 7 0 10
-262144 -1 -1;
#X obj 409 587 tabwrite~ \$1loop;
#X msg 202 449 \; \$1 resize \$2;
#X obj 207 430 pack s f;
#X obj 215 390 t b f;
#N canvas 0 22 450 278 (subpatch) 0;
#X array \$1loop 708923 float 2;
#X coords 0 1 708923 -1 150 105 1 0 0;
#X restore 132 149 graph;
#X obj 212 84 s timeboop;
#X obj 267 133 bng 15 250 50 0 empty empty empty 17 7 0 10 -262144
-1 -1;
#X obj 467 234 bng 15 250 50 0 \$1_countin empty countin 17 7 0 10
-262144 -1 -1;
#X obj 640 551 *~;
#X obj 645 489 phasor~;
#X obj 645 509 *~;
#X obj 640 529 tabread4~ \$1loop;
#X obj 640 469 /;
#X obj 687 262 bng 15 250 50 0 \$1_lup_stp empty lup_stp 17 7 0 10
-262144 -1 -1;
#X obj 724 569 line~;
#X msg 709 549 1 15;
#X msg 743 549 0 15;
#X obj 49 348 symbol \$1;
#X obj 81 136 cnv 15 50 116 empty \$1-canv empty 20 12 0 14 -225280
-262144 0;
#X msg 49 388 \; \$1-canv color \$2;
#X obj 63 328 t b f;
#X msg 378 589 13;
#X obj 55 308 r \$1-col;
#X obj 488 363 s \$1-col;
#X msg 488 344 14;
#X msg 517 344 7;
#X obj 378 610 s \$1-col;
#X obj 207 411 symbol \$1loop;
#X obj 516 322 del 100;
#X obj 816 532 s \$1-col;
#X obj 856 490 del 80;
#X obj 814 485 metro;
#X msg 787 509 16;
#X obj 798 466 tgl 15 0 empty empty empty 17 7 0 10 -262144 -1 -1 0
1;
#X obj 775 485 sel 0;
#X msg 824 508 19;
#X msg 853 510 18;
#X obj 49 368 pack s f;
#X msg 81 289 7;
#X msg 773 447 1;
#X msg 814 448 0;
#X msg 684 468 0;
#X msg 534 131 0;
#X msg 502 131 1;
#X obj 496 82 r \$1-bang;
#X msg 325 557 0;
#X obj 424 340 +;
#X obj 449 340 f;
#X msg 424 319 1;
#X floatatom 448 365 5 0 0 0 - - -;
#X text 366 359 % countin;
#X text 132 25 \$1 name \, \$2 length (*bpm);
#X obj 199 291 r milsbeat;
#X obj 213 349 * \$2;
#X obj 841 464 r milsbeat;
#X obj 483 567 del;
#X obj 380 529 r \$1_rec_srt;
#X obj 703 408 r \$1_lup_srt;
#X obj 484 609 bng 15 250 50 0 \$1_lup_srt empty lup_srt 17 7 0 10
-262144 -1 -1;
#X obj 793 411 r \$1_lup_stp;
#X obj 488 436 bng 15 250 50 0 \$1_zro empty zro 17 7 0 10 -262144
-1 -1;
#X obj 620 262 bng 15 250 50 0 \$1_lup_srt empty lup_srt 17 7 0 10
-262144 -1 -1;
#X obj 467 299 metro;
#X obj 496 278 r milsbeat;
#X msg 429 293 0;
#X obj 480 153 spigoti;
#X obj 488 417 bng 15 250 50 0 \$1_lup_stp empty lup_stp 17 7 0 10
-262144 -1 -1;
#X text 428 254 countin->rec;
#X text 405 514 rec->lup;
#X text 295 526 clear;
#X msg 437 566 stop;
#X text 759 389 luuping;
#X msg 676 131 0;
#X msg 644 131 1;
#X obj 624 153 spigoti;
#X obj 344 271 r \$1_rec_srt;
#X obj 325 536 r \$1_zro;
#X obj 631 84 r \$1-clear;
#X obj 639 111 r \$1_lup_srt;
#X obj 423 272 r \$1-clear;
#X obj 461 529 r \$1-clear;
#X obj 498 547 r \$1_mlupsiz;
#X obj 264 485 s \$1_mlupsiz;
#X obj 565 503 r \$1_slupsiz;
#X obj 164 486 s \$1_slupsiz;
#X obj 424 360 % 5;
#X obj 640 615 throw~ allsigM;
#X obj 111 278 r \$1-clear;
#X obj 629 237 spigot;
#X obj 664 216 tgl 15 0 empty empty empty 17 7 0 10 -262144 -1 -1 0
1;
#X obj 688 221 invo;
#X obj 654 242 spigot;
#X obj 632 173 t b b;
#X msg 683 195 0;
#X obj 468 629 s \$1_trigspig;
#X obj 683 176 r \$1_trigspig;
#X obj 619 414 samplerate~;
#X obj 640 449 f;
#X obj 619 395 loadbang;
#X obj 592 70 loadbang;
#X obj 82 263 loadbang;
#X obj 266 333 samplerate~;
#X obj 266 312 loadbang;
#X obj 266 353 / 1000;
#X obj 210 370 *;
#X obj 506 260 r thismils;
#X obj 841 447 r thismils;
#X obj 426 388 sel 0 3;
#X text 335 24 1st bang= countin->rec \, then bang= on/off until cleared
;
#X obj 375 486 r~ luuperinL;
#X text 191 259 sets loop size based on bpm;
#X obj 215 329 f;
#X obj 215 310 del 1;
#X obj 300 430 *;
#X obj 301 391 r milsbeat;
#X obj 301 411 * \$2;
#X text 261 380 handles smooth bpm shift;
#X obj 580 376 r \$1-playrate;
#X obj 299 452 s \$1-playrate;
#X obj 580 416 t b f;
#X obj 640 590 *~ 1;
#X obj 646 570 r \$1-vol;
#X obj 639 325 line;
#X connect 3 0 2 0;
#X connect 4 0 28 0;
#X connect 4 1 3 1;
#X connect 7 0 6 0;
#X connect 8 0 43 0;
#X connect 8 0 63 0;
#X connect 9 0 121 0;
#X connect 10 0 11 0;
#X connect 11 0 12 0;
#X connect 12 0 9 0;
#X connect 13 0 10 0;
#X connect 15 0 9 1;
#X connect 16 0 15 0;
#X connect 17 0 15 0;
#X connect 18 0 38 0;
#X connect 21 0 18 0;
#X connect 21 1 38 1;
#X connect 22 0 27 0;
#X connect 23 0 21 0;
#X connect 25 0 24 0;
#X connect 26 0 24 0;
#X connect 28 0 3 0;
#X connect 29 0 26 0;
#X connect 31 0 37 0;
#X connect 32 0 36 0;
#X connect 32 0 31 0;
#X connect 33 0 30 0;
#X connect 34 0 32 0;
#X connect 34 0 35 0;
#X connect 35 0 33 0;
#X connect 36 0 30 0;
#X connect 37 0 30 0;
#X connect 38 0 20 0;
#X connect 39 0 21 0;
#X connect 40 0 34 0;
#X connect 41 0 34 0;
#X connect 42 0 10 1;
#X connect 42 0 10 0;
#X connect 43 0 66 1;
#X connect 44 0 66 1;
#X connect 45 0 66 0;
#X connect 45 0 75 0;
#X connect 46 0 1 0;
#X connect 47 0 86 0;
#X connect 48 0 47 1;
#X connect 49 0 47 0;
#X connect 53 0 112 1;
#X connect 54 0 83 0;
#X connect 54 0 105 0;
#X connect 55 0 32 1;
#X connect 56 0 59 0;
#X connect 56 0 95 0;
#X connect 57 0 56 0;
#X connect 57 0 22 0;
#X connect 57 0 1 0;
#X connect 58 0 16 0;
#X connect 58 0 40 0;
#X connect 58 0 98 0;
#X connect 60 0 41 0;
#X connect 60 0 17 0;
#X connect 60 0 42 0;
#X connect 63 0 25 0;
#X connect 63 0 49 0;
#X connect 63 0 29 0;
#X connect 64 0 63 1;
#X connect 65 0 63 0;
#X connect 65 0 47 1;
#X connect 66 0 8 0;
#X connect 67 0 61 0;
#X connect 71 0 1 0;
#X connect 73 0 75 1;
#X connect 74 0 75 1;
#X connect 75 0 93 0;
#X connect 76 0 65 0;
#X connect 77 0 46 0;
#X connect 78 0 73 0;
#X connect 78 0 44 0;
#X connect 79 0 74 0;
#X connect 80 0 65 0;
#X connect 81 0 71 0;
#X connect 82 0 56 1;
#X connect 84 0 11 1;
#X connect 84 0 13 1;
#X connect 86 0 48 0;
#X connect 86 0 50 0;
#X connect 86 0 108 0;
#X connect 88 0 39 0;
#X connect 89 0 62 0;
#X connect 90 0 91 0;
#X connect 90 0 89 1;
#X connect 91 0 92 1;
#X connect 92 0 14 0;
#X connect 93 0 90 0;
#X connect 93 1 92 0;
#X connect 93 1 89 0;
#X connect 94 0 90 0;
#X connect 96 0 94 0;
#X connect 97 0 98 1;
#X connect 98 0 13 0;
#X connect 99 0 97 0;
#X connect 100 0 44 0;
#X connect 100 0 73 0;
#X connect 101 0 39 0;
#X connect 102 0 104 0;
#X connect 103 0 102 0;
#X connect 103 0 113 0;
#X connect 104 0 105 1;
#X connect 104 0 114 1;
#X connect 105 0 4 0;
#X connect 105 0 85 0;
#X connect 106 0 63 1;
#X connect 107 0 32 1;
#X connect 108 0 0 0;
#X connect 108 1 67 0;
#X connect 110 0 1 0;
#X connect 112 0 54 0;
#X connect 113 0 112 0;
#X connect 114 0 119 0;
#X connect 115 0 116 0;
#X connect 116 0 114 0;
#X connect 118 0 120 0;
#X connect 120 0 98 0;
#X connect 120 1 13 1;
#X connect 121 0 87 0;
#X connect 122 0 121 1;
#X coords 0 -1 1 1 203 135 1 80 120;
