#N canvas 173 132 450 300 10;
#X obj 86 48 random 100;
#X obj 26 20 inlet~;
#X obj 86 29 inlet;
#X obj 151 219 outlet~;
#X obj 69 219 outlet~;
#X obj 84 160 line~;
#X obj 166 159 line~;
#X obj 86 68 / 100;
#X msg 166 118 1;
#X obj 84 110 t b f;
#X obj 166 138 -;
#X obj 85 137 f;
#X obj 151 198 *~;
#X obj 69 198 *~;
#X obj 126 27 r lb;
#X obj 84 179 lop~ 300;
#X obj 166 179 lop~ 300;
#X obj 161 22 inlet~;
#X text 41 241 when middle inlet banged \, generates 2 new values that
sum to 100 \, applies one value to each channel;
#X obj 84 91 + 0.1;
#X connect 0 0 7 0;
#X connect 1 0 13 0;
#X connect 2 0 0 0;
#X connect 5 0 15 0;
#X connect 6 0 16 0;
#X connect 7 0 19 0;
#X connect 8 0 10 0;
#X connect 9 0 8 0;
#X connect 9 0 11 0;
#X connect 9 1 10 1;
#X connect 9 1 11 1;
#X connect 10 0 6 0;
#X connect 11 0 5 0;
#X connect 12 0 3 0;
#X connect 13 0 4 0;
#X connect 14 0 0 0;
#X connect 15 0 13 1;
#X connect 16 0 12 1;
#X connect 17 0 12 0;
#X connect 19 0 9 0;
