#N canvas 164 174 298 459 10;
#X obj 32 41 inlet;
#X obj 90 41 inlet;
#X obj 147 43 inlet;
#X text 96 24 on;
#X text 41 25 off;
#X obj 61 120 metro;
#X obj 161 94 r milsbeat;
#X obj 185 134 t b f;
#X obj 161 137 f;
#X obj 157 181 *;
#X obj 61 221 -;
#X obj 58 198 f;
#X msg 32 68 0;
#X obj 95 356 s \$1-stepset;
#X obj 73 175 r \$1-step;
#X obj 185 113 r \$1-tempd;
#X text 196 157 mils/step;
#X text 180 181 *steps repeat;
#X obj 27 201 f;
#X obj 28 221 +;
#X floatatom 26 245 5 0 0 0 - - -;
#X obj 11 264 f;
#X obj 11 180 bng 15 250 50 0 empty empty empty 17 7 0 10 -262144 -1
-1;
#X obj 172 158 / 4;
#X obj 83 254 moses 0;
#X obj 105 235 r \$1-seqsize;
#X obj 83 274 t b f;
#X obj 81 294 f;
#X obj 84 315 +;
#X connect 0 0 12 0;
#X connect 1 0 5 0;
#X connect 2 0 9 0;
#X connect 2 0 10 1;
#X connect 2 0 18 1;
#X connect 5 0 11 0;
#X connect 5 0 18 0;
#X connect 6 0 8 0;
#X connect 7 0 8 0;
#X connect 7 1 23 1;
#X connect 8 0 23 0;
#X connect 9 0 5 1;
#X connect 10 0 24 0;
#X connect 11 0 10 0;
#X connect 12 0 5 0;
#X connect 12 0 22 0;
#X connect 12 0 20 0;
#X connect 14 0 11 1;
#X connect 15 0 7 0;
#X connect 18 0 19 0;
#X connect 19 0 20 0;
#X connect 20 0 19 1;
#X connect 20 0 21 1;
#X connect 21 0 13 0;
#X connect 22 0 21 0;
#X connect 23 0 9 1;
#X connect 24 0 26 0;
#X connect 24 1 13 0;
#X connect 25 0 27 1;
#X connect 26 0 27 0;
#X connect 26 1 28 1;
#X connect 27 0 28 0;
#X connect 28 0 13 0;
