#N canvas 138 95 1080 552 10;
#N canvas 0 22 450 278 (subpatch) 0;
#X array \$1-seqi 16 float 2;
#X coords 0 127 16 0 260 160 1 0 0;
#X restore 52 43 graph;
#X floatatom 521 483 5 0 0 0 - - -;
#X obj 510 370 textfile;
#X msg 591 331 rewind;
#X msg 615 351 clear;
#X msg 594 371 print;
#X msg 500 410 1;
#X obj 500 430 +;
#X floatatom 528 430 5 0 0 0 - - -;
#X text 481 204 load preset;
#X msg 225 290 \; \$1 resize \$2;
#X obj 539 292 symbol \$1;
#X obj 511 222 bng 25 250 50 0 empty empty empty 17 7 0 10 -262144
-1 -1;
#X obj 522 186 t b s;
#X text 390 486 change steps:;
#X obj 216 252 symbol \$1-seqi;
#X obj 461 454 tabwrite \$1-seqi;
#X obj 500 253 t b b b;
#X text 606 58 have a textfile of a sequence. upon load \, send the
given a tempo multiplier for the sequence. count number of steps send
this number of steps to the sequence counter %;
#X msg 539 312 read ../SequenceWitch/txsq/\$1.txt;
#X text 591 160 sequencename \, step multiplier;
#X obj 522 163 unpack s f;
#N canvas 904 479 450 300 write 0;
#X msg 63 106 1;
#X obj 63 126 +;
#X floatatom 89 124 5 0 0 0 - - -;
#X obj 63 147 % \$2;
#X obj 63 86 metro 5;
#X msg 54 233 add \$1;
#X obj 53 191 moses 0.5;
#X msg 53 211 0;
#X msg 87 211 1;
#X obj 122 131 sel;
#X obj 139 91 \$2;
#X obj 139 111 - 1;
#X obj 136 71 r lb;
#X msg 124 151 stop;
#X obj 69 58 bng 25 250 50 0 empty empty empty 17 7 0 10 -262144 -1
-1;
#X obj 131 229 symbol \$1;
#X obj 131 200 bng 25 250 50 0 empty empty empty 17 7 0 10 -262144
-1 -1;
#X text 63 16 write \; writes array into textfile;
#X text 157 198 save \; saves textfile by name;
#X obj 53 170 tabread \$1-seqi;
#X floatatom 171 54 5 0 0 0 - - -;
#X text 19 40 *step limit must be set if diff from default;
#X obj 73 276 s \$1-tf;
#X msg 130 248 write ../SequenceWitch/txsq/\$1.txt;
#X connect 0 0 1 0;
#X connect 1 0 3 0;
#X connect 2 0 1 1;
#X connect 2 0 9 0;
#X connect 3 0 2 0;
#X connect 3 0 19 0;
#X connect 4 0 0 0;
#X connect 5 0 22 0;
#X connect 6 0 7 0;
#X connect 6 1 8 0;
#X connect 7 0 5 0;
#X connect 8 0 5 0;
#X connect 9 0 13 0;
#X connect 10 0 11 0;
#X connect 11 0 9 1;
#X connect 12 0 10 0;
#X connect 13 0 4 0;
#X connect 14 0 4 0;
#X connect 15 0 23 0;
#X connect 16 0 15 0;
#X connect 19 0 6 0;
#X connect 20 0 10 1;
#X connect 20 0 3 1;
#X connect 23 0 22 0;
#X restore 190 400 pd write function;
#X msg 503 293 0;
#X obj 566 448 s \$1-seqsize;
#X obj 216 233 t b f;
#X obj 216 214 r \$1-seqsize;
#X floatatom 477 483 5 0 0 0 - - -;
#X text 476 475 vel;
#X text 518 469 index;
#X text 588 423 size of newly loaded textfile;
#X text 554 252 read file \, rewind \, start metro;
#X text 335 452 load steps into array;
#X msg 858 311 1;
#X obj 858 331 +;
#X floatatom 884 331 5 0 0 0 - - -;
#X obj 853 199 inlet;
#X obj 858 396 outlet;
#X obj 779 311 r \$1-stepset;
#X obj 858 286 metro;
#X text 838 185 seq stop/start;
#X obj 858 234 tgl 15 0 empty empty empty 17 7 0 10 -262144 -1 -1 0
1;
#X text 998 339 step counter limit;
#X msg 899 305 -1;
#X obj 858 374 tabread \$1-seqi;
#X obj 539 273 t b b;
#X text 577 275 anytime fileread is banged \, cleared first;
#X obj 919 338 r \$1-seqsize;
#X obj 897 203 r milsbeat;
#X obj 899 286 sel 0;
#X text 910 266 tempo divisor;
#X obj 882 224 t b f;
#X obj 882 245 f;
#X obj 566 422 f;
#X obj 216 271 pack s f;
#X obj 858 352 %;
#X text 611 34 arg 1 default name;
#X msg 656 351 0;
#X floatatom 459 398 5 0 0 0 - - -;
#X msg 263 233 100;
#X obj 477 313 metro 0.1;
#X obj 438 167 r \$1-load;
#X floatatom 280 27 5 0 0 0 - - -;
#X floatatom 248 27 5 0 0 0 - - -;
#X obj 389 5 r \$1-seqsize;
#X obj 522 142 r \$1-pat;
#X obj 330 5 r \$1-step;
#X obj 890 356 s \$1-step;
#X floatatom 215 27 5 0 0 0 - - -;
#X obj 885 266 / 4;
#X obj 923 242 s \$1-tempd;
#X obj 483 185 r lob;
#X connect 1 0 16 1;
#X connect 2 0 58 0;
#X connect 2 0 16 0;
#X connect 2 0 6 0;
#X connect 2 1 23 0;
#X connect 2 1 53 0;
#X connect 3 0 2 0;
#X connect 4 0 2 0;
#X connect 6 0 7 0;
#X connect 7 0 8 0;
#X connect 8 0 7 1;
#X connect 8 0 53 1;
#X connect 8 0 16 1;
#X connect 11 0 19 0;
#X connect 12 0 17 0;
#X connect 12 0 59 0;
#X connect 13 0 12 0;
#X connect 13 1 11 1;
#X connect 15 0 54 0;
#X connect 17 0 60 0;
#X connect 17 1 3 0;
#X connect 17 2 45 0;
#X connect 19 0 2 0;
#X connect 21 0 13 0;
#X connect 21 1 51 0;
#X connect 21 1 62 0;
#X connect 23 0 60 0;
#X connect 25 0 15 0;
#X connect 25 1 54 1;
#X connect 26 0 25 0;
#X connect 27 0 16 0;
#X connect 33 0 34 0;
#X connect 34 0 55 0;
#X connect 35 0 34 1;
#X connect 35 0 67 0;
#X connect 36 0 41 0;
#X connect 38 0 55 0;
#X connect 39 0 33 0;
#X connect 41 0 39 0;
#X connect 41 0 49 0;
#X connect 43 0 34 1;
#X connect 44 0 37 0;
#X connect 45 0 11 0;
#X connect 45 1 4 0;
#X connect 45 1 57 0;
#X connect 47 0 55 1;
#X connect 48 0 52 0;
#X connect 49 0 43 0;
#X connect 51 0 52 0;
#X connect 51 1 69 1;
#X connect 51 1 70 0;
#X connect 52 0 69 0;
#X connect 53 0 24 0;
#X connect 54 0 10 0;
#X connect 55 0 35 0;
#X connect 55 0 44 0;
#X connect 57 0 8 0;
#X connect 59 0 25 0;
#X connect 60 0 2 0;
#X connect 61 0 12 0;
#X connect 64 0 63 0;
#X connect 65 0 21 0;
#X connect 66 0 68 0;
#X connect 69 0 39 1;
#X connect 71 0 12 0;
#X coords 0 -1 1 1 262 192 1 51 12;
