#N canvas 217 23 884 519 10;
#X msg 151 144 0;
#X obj 82 144 bng 15 250 50 0 empty empty empty 17 7 0 10 -262144 -1
-1;
#X obj 82 123 r \$1-start;
#X obj 151 123 r \$1-stop;
#X obj 501 352 bng 25 250 50 0 empty empty empty 17 7 0 10 -203904
-1 -1;
#X obj 648 346 s timeboop;
#X obj 141 102 r alof;
#X obj 157 185 seqi \$1;
#X text 92 86 seq stop/start;
#X text 22 20 \$1 default sequence name \$2 default sample name \$3
samplevol;
#X obj 470 469 outlet~;
#X obj 573 469 outlet~;
#X text 479 485 L out;
#X text 574 485 R out;
#X obj 650 325 s \$2-load;
#X obj 650 305 s \$1-load;
#X text 426 357 load presets;
#X obj 501 390 r \$2-vol;
#X obj 424 436 *~ 1;
#X obj 456 436 *~ 1;
#X obj 545 436 *~ 1;
#X obj 576 432 *~ 1;
#X floatatom 555 391 5 0 0 0 - - -;
#X obj 422 185 stsampw \$2 \$3;
#X obj 143 495 throw~ fx-del;
#X obj 232 494 throw~ fx-verb;
#X obj 158 397 r \$1-potbut;
#X obj 144 475 spigot;
#X obj 180 442 sel 0 1 2 3 4 5;
#X obj 231 397 r fx-sel;
#X obj 231 473 spigot;
#X obj 433 500 throw~ allseqL;
#X obj 541 501 throw~ allseqR;
#X obj 184 423 f;
#X obj 93 102 r ontog;
#X connect 0 0 7 0;
#X connect 1 0 7 0;
#X connect 2 0 1 0;
#X connect 3 0 0 0;
#X connect 4 0 5 0;
#X connect 4 0 14 0;
#X connect 4 0 15 0;
#X connect 6 0 0 0;
#X connect 7 0 23 0;
#X connect 17 0 22 0;
#X connect 17 0 18 1;
#X connect 17 0 19 1;
#X connect 17 0 20 1;
#X connect 17 0 21 1;
#X connect 18 0 31 0;
#X connect 19 0 10 0;
#X connect 20 0 32 0;
#X connect 21 0 11 0;
#X connect 23 0 18 0;
#X connect 23 0 19 0;
#X connect 23 1 20 0;
#X connect 23 1 21 0;
#X connect 26 0 33 0;
#X connect 27 0 24 0;
#X connect 29 0 33 1;
#X connect 30 0 25 0;
#X connect 34 0 1 0;
#X coords 0 -1 1 1 67 41 1 460 337;
