#N canvas 108 23 396 357 10;
#X obj 17 17 inlet;
#X text 56 15 if 1-126 \, vol;
#X obj 90 66 - 1;
#X obj 21 47 sel 0 127;
#X obj 89 145 s \$1-vol;
#X obj 14 87 s \$1-ranpan;
#X text 9 169 sequabuttons for effects?;
#X msg 14 67 0;
#X msg 44 67 1;
#X obj 80 30 r lb;
#X obj 89 125 line;
#X obj 89 105 pack f 11;
#X obj 90 85 / 125;
#X connect 0 0 3 0;
#X connect 2 0 12 0;
#X connect 3 0 7 0;
#X connect 3 1 8 0;
#X connect 3 2 2 0;
#X connect 7 0 5 0;
#X connect 8 0 5 0;
#X connect 9 0 8 0;
#X connect 10 0 4 0;
#X connect 11 0 10 0;
#X connect 12 0 11 0;
