#N canvas 69 37 1152 738 10;
#X obj 30 425 bng 25 250 50 0 empty empty empty 17 7 0 10 -4034 -1
-1;
#X obj 77 453 s alof;
#X obj 30 405 spigot;
#X msg 34 368 1;
#X msg 61 368 0;
#X obj 77 405 spigot;
#X msg 90 368 1;
#X msg 118 368 0;
#X obj 55 388 tgl 15 0 empty empty empty 17 7 0 10 -262144 -1 -1 1
1;
#X obj 99 388 tgl 15 0 empty empty empty 17 7 0 10 -262144 -1 -1 0
1;
#X obj 26 332 r lb;
#X obj 77 425 bng 25 250 50 0 empty empty empty 17 7 0 10 -258113 -1
-1;
#N canvas 152 258 983 556 midibiz 0;
#X obj 76 65 ctlin;
#X floatatom 88 47 3 0 0 0 - - -;
#X floatatom 66 47 3 0 0 0 - - -;
#X floatatom 110 47 5 0 0 0 - - -;
#X obj 73 106 pack f f;
#X obj 76 85 swap;
#X obj 59 129 route 8 9 10 11 12 13 14 15 16 17 18 19 20 21 22 23;
#N canvas 316 23 873 682 sequa-enc1 0;
#X obj 201 37 inlet;
#X text 240 35 if 1-16 \, p/s;
#X obj 201 61 sel 0 127;
#X obj 247 134 f;
#X text 257 249 patterns;
#X obj 120 214 sel 1 2 3 4 5 6 7 8;
#X obj 253 216 sel 9 10 11 12 13 14 15 16;
#N canvas 465 362 450 300 defo 0;
#X obj 36 37 inlet;
#X msg 84 131 \; hhc-samp hh_pash;
#X msg 164 97 \; hh-samp hh_shimmashrt;
#X msg 34 61 \; K-samp k_dig;
#X msg 40 98 \; sn-samp s_geddit;
#X connect 0 0 3 0;
#X connect 0 0 4 0;
#X connect 0 0 1 0;
#X connect 0 0 2 0;
#X restore 117 260 pd defo;
#X obj 82 234 r lb;
#X connect 0 0 2 0;
#X connect 2 1 3 0;
#X connect 2 2 3 1;
#X connect 3 0 5 0;
#X connect 3 0 6 0;
#X connect 5 0 7 0;
#X connect 8 0 7 0;
#X restore 210 157 pd sequa-enc1;
#N canvas 205 23 871 658 sequa-enc2 0;
#X restore 227 180 pd sequa-enc2;
#N canvas 378 23 771 582 sequa-enc3 0;
#X restore 245 202 pd sequa-enc3;
#N canvas 376 23 866 600 sequa-enc4 0;
#X restore 262 225 pd sequa-enc4;
#N canvas 194 23 1048 741 sequa-enc5 0;
#X obj 206 22 inlet;
#X text 245 20 if 1-16 \, p/s;
#X obj 243 117 f;
#X obj 206 46 sel 0 127;
#X obj 82 177 sel 1 2 3 4 5 6 7 8;
#X obj 220 178 sel 9 10 11 12 13 14 15 16;
#N canvas 493 341 450 300 diggifault 0;
#X obj 27 22 inlet;
#X msg 23 59 \; hatsq-pat diggihat 4;
#X msg 93 127 \; kicksq-pat diggikick 4;
#X msg 63 163 \; snaresq-pat diggisnar 4;
#X msg 33 95 \; clhatsq-pat dig-hatdown 4;
#X connect 0 0 1 0;
#X connect 0 0 4 0;
#X connect 0 0 2 0;
#X connect 0 0 3 0;
#X restore 62 203 pd diggifault;
#N canvas 455 342 450 300 diggifula 0;
#X obj 27 22 inlet;
#X msg 23 59 \; hatsq-pat diggihat 4;
#X msg 33 95 \; clhatsq-pat dig-hatdown 3;
#X msg 93 127 \; kicksq-pat diggikick 4;
#X msg 63 163 \; snaresq-pat diggisnar 4;
#X connect 0 0 1 0;
#X connect 0 0 2 0;
#X connect 0 0 3 0;
#X connect 0 0 4 0;
#X restore 66 226 pd diggifula;
#N canvas 388 315 450 300 dagbreak1 0;
#X obj 43 26 inlet;
#X msg 42 49 \; snaresq-pat breaksn64-4 4;
#X msg 52 90 \; kicksq-pat breakbese64-4 4;
#X connect 0 0 1 0;
#X connect 0 0 2 0;
#X restore 80 259 pd dagbreak1;
#X msg 84 356 \; kicksq-pat breakbase64-4 4;
#X msg 114 394 \; kicksq-pat breakbese64-4 4;
#X msg 127 427 \; kicksq-pat breakbise64-4 4;
#X msg 148 461 \; kicksq-pat breakbose64-4 4;
#X obj 54 143 r lb;
#X connect 0 0 3 0;
#X connect 2 0 4 0;
#X connect 2 0 5 0;
#X connect 3 1 2 0;
#X connect 3 2 2 1;
#X connect 4 0 6 0;
#X connect 4 1 7 0;
#X connect 4 2 8 0;
#X connect 13 0 6 0;
#X restore 287 245 pd sequa-enc5;
#N canvas 361 321 829 561 sequa-enc6 0;
#X obj 216 32 inlet;
#X obj 142 95 sel 0 127;
#X text 298 40 loop/glitch~;
#X obj 244 95 sel 0 127;
#X obj 143 141 sel 0 127;
#X obj 247 141 sel 0 127;
#X obj 124 119 sepeet hatsq;
#X obj 125 165 sepeet snaresq;
#X obj 223 119 sepeet kicksq;
#X obj 229 165 sepeet clhatsq;
#X connect 0 0 1 0;
#X connect 0 0 3 0;
#X connect 0 0 4 0;
#X connect 0 0 5 0;
#X connect 1 0 6 0;
#X connect 1 1 6 1;
#X connect 1 2 6 2;
#X connect 3 0 8 0;
#X connect 3 1 8 1;
#X connect 3 2 8 2;
#X connect 4 0 7 0;
#X connect 4 1 7 1;
#X connect 4 2 7 2;
#X connect 5 0 9 0;
#X connect 5 1 9 1;
#X connect 5 2 9 2;
#X restore 304 268 pd sequa-enc6;
#N canvas 279 156 789 581 sequa-enc7 0;
#X restore 326 289 pd sequa-enc7;
#N canvas 384 111 157 182 sequa-enc8 0;
#X obj 38 17 inlet;
#X obj 64 147 s tempo;
#X obj 38 47 sel 0 127;
#X obj 68 119 + 60;
#X connect 0 0 2 0;
#X connect 2 2 3 0;
#X connect 3 0 1 0;
#X restore 343 312 pd sequa-enc8;
#X obj 123 537 bng 15 250 50 0 empty empty empty 17 7 0 10 -262144
-1 -1;
#X obj 69 481 bng 15 250 50 0 empty empty empty 17 7 0 10 -262144 -1
-1;
#X obj 140 556 bng 15 250 50 0 empty empty empty 17 7 0 10 -262144
-1 -1;
#X obj 72 402 sel 0 2 4 5 7 9 11 12;
#X obj 49 427 bng 15 250 50 0 empty empty empty 17 7 0 10 -262144 -1
-1;
#X obj 55 445 bng 15 250 50 0 empty empty empty 17 7 0 10 -262144 -1
-1;
#X obj 61 462 bng 15 250 50 0 empty empty empty 17 7 0 10 -262144 -1
-1;
#X obj 102 499 bng 15 250 50 0 empty empty empty 17 7 0 10 -262144
-1 -1;
#X obj 112 516 bng 15 250 50 0 empty empty empty 17 7 0 10 -262144
-1 -1;
#X obj 18 200 route 127;
#X obj 19 220 sel 127;
#X obj 19 240 s ontog;
#X text 427 315 master tempo;
#X obj 58 154 sequapot hh;
#X obj 76 463 s clhatsq-start;
#X obj 84 481 s hatsq-start;
#X obj 65 427 s kicksq-start;
#X obj 70 445 s snaresq-start;
#X obj 117 499 s percasq-start;
#X obj 127 517 s percbsq-start;
#X obj 139 537 s perccsq-start;
#X obj 155 556 s percdsq-start;
#X text 212 83 pots: sequence1-8 volume \, pot buts: ranpan tog \,
encs: sequence pattern \, enc buts: sample/pattern toggle;
#X text 294 157 samples;
#X text 370 245 patterns;
#X text 387 268 seq loop;
#X obj 605 18 notein;
#X obj 586 58 stripnote;
#X floatatom 664 41 3 0 0 0 - - -;
#X floatatom 643 41 3 0 0 0 - - -;
#X obj 586 39 pack f f;
#X obj 636 101 pack f f;
#X obj 563 123 s stripnote;
#X obj 637 122 s stripnotev;
#X obj 668 67 s notev;
#X obj 67 373 r stripnote;
#N canvas 621 348 630 466 luuper-ctl 0;
#X obj 32 120 spigolu one;
#X obj 39 58 r stripnote;
#X obj 46 140 spigolu two;
#X obj 61 159 spigolu thre;
#X obj 71 178 spigolu four;
#X obj 99 218 spigolu six;
#X obj 114 237 spigolu sev;
#X obj 219 60 r midictl;
#X obj 218 86 route 24;
#X obj 36 88 sel 14 16 17 19 21 22 23 24;
#X obj 295 85 route 24 25 26 27 28 29 30 31;
#X obj 85 198 spigolu fiv;
#X obj 312 184 s one-vol;
#X obj 315 107 - 1;
#X obj 315 126 / 126;
#X obj 313 165 line;
#X msg 314 146 \$1 10;
#X connect 1 0 9 0;
#X connect 7 0 8 0;
#X connect 7 0 10 0;
#X connect 8 0 0 1;
#X connect 8 0 2 1;
#X connect 8 0 3 1;
#X connect 8 0 4 1;
#X connect 8 0 5 1;
#X connect 8 0 6 1;
#X connect 8 0 11 1;
#X connect 9 0 0 0;
#X connect 9 1 2 0;
#X connect 9 2 3 0;
#X connect 9 3 4 0;
#X connect 9 4 11 0;
#X connect 9 5 5 0;
#X connect 9 6 6 0;
#X connect 10 1 13 0;
#X connect 13 0 14 0;
#X connect 14 0 16 0;
#X connect 15 0 12 0;
#X connect 16 0 15 0;
#X restore 597 172 pd luuper-ctl;
#X obj 147 109 s midictl;
#X obj 135 242 sequapot;
#X obj 152 265 sequapot;
#X obj 174 286 sequapot;
#X obj 191 309 sequapot;
#X obj 75 177 sequapot hhc;
#X obj 93 199 sequapot K;
#X obj 110 222 sequapot sn;
#X connect 0 0 2 0;
#X connect 0 0 5 0;
#X connect 0 1 1 0;
#X connect 0 1 5 1;
#X connect 0 2 3 0;
#X connect 4 0 6 0;
#X connect 4 0 24 0;
#X connect 4 0 52 0;
#X connect 5 0 4 0;
#X connect 5 1 4 1;
#X connect 6 0 28 0;
#X connect 6 1 57 0;
#X connect 6 2 58 0;
#X connect 6 3 59 0;
#X connect 6 4 53 0;
#X connect 6 5 54 0;
#X connect 6 6 55 0;
#X connect 6 7 56 0;
#X connect 6 8 7 0;
#X connect 6 12 11 0;
#X connect 6 13 12 0;
#X connect 6 15 14 0;
#X connect 15 0 35 0;
#X connect 16 0 30 0;
#X connect 17 0 36 0;
#X connect 18 0 31 0;
#X connect 18 1 32 0;
#X connect 18 2 29 0;
#X connect 18 3 30 0;
#X connect 18 4 22 0;
#X connect 18 5 23 0;
#X connect 18 6 15 0;
#X connect 18 7 17 0;
#X connect 19 0 31 0;
#X connect 20 0 32 0;
#X connect 21 0 29 0;
#X connect 22 0 33 0;
#X connect 23 0 34 0;
#X connect 24 0 25 0;
#X connect 25 0 26 0;
#X connect 41 0 44 0;
#X connect 41 0 45 0;
#X connect 41 1 43 0;
#X connect 41 1 45 1;
#X connect 42 0 47 0;
#X connect 42 0 46 0;
#X connect 42 1 46 1;
#X connect 45 0 42 0;
#X connect 45 0 49 0;
#X connect 46 0 48 0;
#X connect 50 0 18 0;
#X coords 0 -1 1 1 285 60 1 200 20;
#X restore 199 22 pd midibiz;
#X obj 33 15 loadbang;
#X obj 33 36 s lb;
#X obj 26 78 s adc-lvl;
#X msg 26 57 1;
#X obj 20 109 taptempo;
#N canvas 26 23 401 320 output 1;
#X obj 29 261 dac~ 1 2;
#X obj 83 229 *~;
#X obj 98 207 line~;
#X obj 98 187 pack 0 15;
#X obj 20 230 *~;
#X obj 35 208 line~;
#X obj 35 188 pack 0 15;
#X obj 42 58 tgl 40 0 empty empty empty 17 7 0 10 -262144 -1 -1 1 1
;
#X obj 32 10 r lb;
#X msg 183 87 0.25;
#X obj 63 149 catch~ allsigM;
#X obj 126 109 catch~ allseqR;
#X obj 20 109 catch~ allseqL;
#X obj 270 21 adc~ 1 2;
#X obj 262 45 *~ 0.9;
#X obj 304 45 *~ 0.9;
#X obj 259 84 throw~ allsigM;
#X obj 268 65 s~ luuperinL;
#X obj 125 128 *~ 0.25;
#X obj 20 131 *~ 0.25;
#X connect 1 0 0 1;
#X connect 2 0 1 1;
#X connect 3 0 2 0;
#X connect 4 0 0 0;
#X connect 5 0 4 1;
#X connect 6 0 5 0;
#X connect 7 0 6 0;
#X connect 7 0 3 0;
#X connect 8 0 7 0;
#X connect 9 0 3 0;
#X connect 9 0 6 0;
#X connect 10 0 4 0;
#X connect 10 0 1 0;
#X connect 11 0 18 0;
#X connect 12 0 19 0;
#X connect 13 0 14 0;
#X connect 13 1 15 0;
#X connect 14 0 16 0;
#X connect 14 0 17 0;
#X connect 18 0 1 0;
#X connect 19 0 4 0;
#X coords 0 -1 1 1 44 60 1 40 40;
#X restore 16 503 pd output bus;
#X msg 49 473 1;
#X msg 92 472 0;
#X msg 25 677 start;
#X msg 25 698 stop;
#X obj 49 633 writesf~ 2;
#X msg 25 656 open lysodimyd.wav;
#X obj 48 587 +~;
#X obj 48 608 *~ 0.6;
#X obj 103 586 +~;
#X obj 103 607 *~ 0.6;
#N canvas 277 563 450 300 fx 0;
#X obj 74 64 catch~ fx-del;
#X obj 183 72 catch~ fx-verb;
#X restore 114 507 pd fx;
#X obj 30 453 s ontog;
#X text 583 154 sub;
#X text 669 219 tom1;
#X text 716 273 tom2;
#X text 791 319 cymbal;
#X text 423 265 chh/clap;
#X text 441 316 hh/ride;
#X obj 101 12 bng 15 250 50 0 empty empty empty 17 7 0 10 -262144 -1
-1;
#X obj 167 151 sequa kicksq K 1;
#X obj 211 416 luupur one 32;
#X obj 506 555 luupur six 16;
#X obj 712 553 luupur sev 12;
#X obj 419 414 luupur two 32;
#X obj 625 414 luupur thre 24;
#X obj 832 415 luupur four 24;
#X obj 299 554 luupur fiv 16;
#X obj 248 199 sequa snaresq sn 1;
#X obj 298 250 sequa clhatsq hhc 1;
#X obj 332 300 sequa hatsq hh 1;
#X obj 427 142 sequa percasq clapsamp 1;
#X obj 516 195 sequa percbsq prcsamp 1;
#X obj 583 254 sequa perccsq tomsamp;
#X obj 650 304 sequa percdsq tomosamp;
#X connect 0 0 19 0;
#X connect 0 0 30 0;
#X connect 2 0 0 0;
#X connect 3 0 8 0;
#X connect 4 0 8 0;
#X connect 5 0 11 0;
#X connect 6 0 9 0;
#X connect 7 0 9 0;
#X connect 8 0 2 1;
#X connect 9 0 5 1;
#X connect 10 0 3 0;
#X connect 10 0 7 0;
#X connect 11 0 1 0;
#X connect 11 0 20 0;
#X connect 13 0 14 0;
#X connect 13 0 16 0;
#X connect 16 0 15 0;
#X connect 21 0 23 0;
#X connect 22 0 23 0;
#X connect 24 0 23 0;
#X connect 25 0 26 0;
#X connect 26 0 23 0;
#X connect 27 0 28 0;
#X connect 28 0 23 1;
#X connect 37 0 14 0;
