#N canvas 137 23 262 159 10;
#X obj 74 7 inlet;
#X obj 69 31 tgl 15 0 empty empty empty 17 7 0 10 -262144 -1 -1 0 1
;
#X obj 32 51 spigot;
#X obj 32 8 inlet;
#X obj 33 78 outlet;
#X connect 0 0 1 0;
#X connect 1 0 2 1;
#X connect 2 0 4 0;
#X connect 3 0 2 0;
#X coords 0 -1 1 1 55 17 1 30 30;
