#N canvas 89 23 401 221 10;
#X obj 102 154 spigoti;
#X obj 42 116 sel 0;
#X msg 42 137 1;
#X msg 69 136 0;
#X obj 21 157 spigoti;
#X obj 53 57 inlet;
#X obj 129 62 inlet;
#X text 26 16 0 at right inlet \, left inlet comes out left Nonzero
at right inlet \, left inlet comes out right;
#X obj 100 175 s \$1-clear;
#X obj 17 178 s \$1-bang;
#X connect 0 0 8 0;
#X connect 1 0 2 0;
#X connect 1 1 3 0;
#X connect 2 0 4 1;
#X connect 3 0 4 1;
#X connect 4 0 9 0;
#X connect 5 0 4 0;
#X connect 5 0 0 0;
#X connect 6 0 1 0;
#X connect 6 0 0 1;
