#N canvas 0 22 397 434 10;
#X obj 54 132 *~ \$2;
#X obj 125 98 del;
#X msg 126 118 0;
#X obj 174 58 tabplay~ \$1-smp-L;
#X obj 60 56 tabplay~ \$1-smp-R;
#X obj 83 26 inlet;
#X obj 137 77 r \$1-sampsiz;
#X text 85 12 bang;
#X obj 170 133 *~ \$2;
#X obj 92 381 outlet~;
#X obj 145 382 outlet~;
#X obj 136 27 inlet;
#X text 171 23 velocity \, 1-125;
#X text 206 131 \$2 is a volume attenuator;
#X obj 101 118 f;
#X obj 55 186 *~;
#X obj 171 187 *~;
#X obj 108 158 line~;
#X msg 111 139 \$1;
#X obj 108 177 lop~ 300;
#X obj 117 226 r \$1-ranpan;
#X obj 165 348 ranpans;
#X obj 67 328 *~;
#X obj 122 327 *~;
#X obj 184 327 bng 15 250 50 0 empty empty empty 17 7 0 10 -262144
-1 -1;
#X obj 89 302 line;
#X msg 89 282 \$1 15;
#X obj 154 327 *~;
#X obj 209 326 *~;
#X obj 202 302 line;
#X msg 202 282 \$1 15;
#X obj 201 259 invo;
#X connect 0 0 15 0;
#X connect 1 0 2 0;
#X connect 2 0 18 0;
#X connect 3 0 8 0;
#X connect 4 0 0 0;
#X connect 5 0 4 0;
#X connect 5 0 1 0;
#X connect 5 0 3 0;
#X connect 5 0 14 0;
#X connect 6 0 1 1;
#X connect 8 0 16 0;
#X connect 11 0 14 0;
#X connect 14 0 18 0;
#X connect 14 0 24 0;
#X connect 15 0 22 0;
#X connect 15 0 27 0;
#X connect 16 0 23 0;
#X connect 16 0 28 0;
#X connect 17 0 19 0;
#X connect 18 0 17 0;
#X connect 19 0 15 1;
#X connect 19 0 16 1;
#X connect 20 0 26 0;
#X connect 20 0 31 0;
#X connect 21 0 9 0;
#X connect 21 1 10 0;
#X connect 22 0 9 0;
#X connect 23 0 10 0;
#X connect 24 0 21 1;
#X connect 25 0 23 1;
#X connect 25 0 22 1;
#X connect 26 0 25 0;
#X connect 27 0 21 0;
#X connect 28 0 21 2;
#X connect 29 0 28 1;
#X connect 29 0 27 1;
#X connect 30 0 29 0;
#X connect 31 0 30 0;
