#N canvas 200 193 915 515 10;
#X obj 56 50 inlet;
#N canvas 0 22 450 278 (subpatch) 0;
#X array \$1-smp-L 7938 float 2;
#X coords 0 1 7938 -1 95 135 1 0 0;
#X restore 301 123 graph;
#X obj 53 134 +;
#X floatatom 53 154 5 0 0 0 - - -;
#X msg 53 113 1;
#X obj 88 133 % 4;
#X obj 53 172 sel 1 2 3 4;
#X obj 49 315 outlet~;
#X obj 617 220 bng 15 250 50 0 empty empty empty 17 7 0 10 -262144
-1 -1;
#X text 288 28 make first arg= filename \, then press "load file";
#X text 675 199 filepath;
#X obj 562 119 t b b;
#X obj 215 313 outlet~;
#X text 35 35 velocity input;
#X obj 53 93 t b f;
#X obj 517 178 symbol \$1;
#X obj 49 70 moses 1;
#X obj 520 259 s \$1-sampsiz;
#X obj 520 239 * 1000;
#X text 287 5 each time gets a number (0-125) \, plays sample with
that volume;
#X text 509 136 sample name;
#X obj 548 79 r \$1-load;
#X text 596 119 load fil;
#N canvas 0 22 450 278 (subpatch) 0;
#X array \$1-smp-R 7938 float 2;
#X coords 0 1 7938 -1 95 135 1 0 0;
#X restore 396 123 graph;
#X obj 514 219 bietstfileopener;
#X obj 577 178 symbol \$1-smp;
#X text 291 43 \$2 is a volume attenuator;
#X obj 190 182 / 127;
#X obj 62 239 stereoplay \$1 \$2;
#X obj 47 216 stereoplay \$1 \$2;
#X obj 152 216 stereoplay \$1 \$2;
#X obj 167 239 stereoplay \$1 \$2;
#X obj 517 151 r \$1-samp;
#X obj 561 98 r lb;
#X msg 516 199 ../SequenceWitch/PD/\$1.wav;
#X connect 0 0 16 0;
#X connect 2 0 3 0;
#X connect 3 0 5 0;
#X connect 3 0 6 0;
#X connect 4 0 2 0;
#X connect 5 0 2 1;
#X connect 6 0 29 0;
#X connect 6 1 30 0;
#X connect 6 2 28 0;
#X connect 6 3 31 0;
#X connect 8 0 11 0;
#X connect 8 0 24 2;
#X connect 11 1 25 0;
#X connect 14 0 4 0;
#X connect 14 1 27 0;
#X connect 15 0 34 0;
#X connect 16 1 14 0;
#X connect 18 0 17 0;
#X connect 21 0 11 0;
#X connect 24 0 18 0;
#X connect 25 0 24 1;
#X connect 27 0 28 1;
#X connect 27 0 29 1;
#X connect 27 0 30 1;
#X connect 27 0 31 1;
#X connect 28 0 7 0;
#X connect 28 1 12 0;
#X connect 29 0 7 0;
#X connect 29 1 12 0;
#X connect 30 0 7 0;
#X connect 30 1 12 0;
#X connect 31 0 7 0;
#X connect 31 1 12 0;
#X connect 32 0 15 0;
#X connect 33 0 11 0;
#X connect 34 0 24 0;
#X coords 0 -1 1 1 192 166 1 300 93;
