#N canvas 200 193 915 515 10;
#X obj 56 50 inlet;
#N canvas 0 22 450 278 (subpatch) 0;
#X array \$1-smp-L 62056 float 2;
#X coords 0 1 62056 -1 95 135 1 0 0;
#X restore 301 123 graph;
#X obj 561 98 r lb;
#X obj 53 134 +;
#X floatatom 53 154 5 0 0 0 - - -;
#X msg 53 113 1;
#X obj 88 133 % 4;
#X obj 53 172 sel 1 2 3 4;
#X obj 49 315 outlet~;
#X obj 617 220 bng 15 250 50 0 empty empty empty 17 7 0 10 -262144
-1 -1;
#X text 288 28 make first arg= filename \, then press "load file";
#X text 670 199 filepath;
#X obj 562 119 t b b;
#X obj 215 313 outlet~;
#X text 35 35 velocity input;
#X obj 53 93 t b f;
#X obj 517 178 symbol \$1;
#X obj 49 70 moses 1;
#X obj 520 259 s \$1-sampsiz;
#X obj 520 239 * 1000;
#X obj 190 182 / 125;
#X text 287 5 each time gets a number (0-125) \, plays sample with
that volume;
#X text 509 136 sample name;
#X obj 517 151 r \$1-sampname;
#X obj 548 79 r \$1-load;
#X text 596 119 load fil;
#N canvas 0 22 450 278 (subpatch) 0;
#X array \$1-smp-R 62056 float 2;
#X coords 0 1 62056 -1 95 135 1 0 0;
#X restore 396 123 graph;
#X obj 514 219 bietstfileopener;
#X obj 577 178 symbol \$1-smp;
#N canvas 437 653 450 300 stereoplay 0;
#X obj 64 119 *~ \$2;
#X text 15 119 vol mod;
#X obj 66 143 *~ 1;
#X obj 121 145 line;
#X obj 111 105 f;
#X obj 135 85 del;
#X msg 136 105 0;
#X obj 184 45 tabplay~ \$1-smp-L;
#X obj 70 43 tabplay~ \$1-smp-R;
#X obj 93 13 inlet;
#X obj 147 64 r \$1-sampsiz;
#X text 95 -1 bang;
#X obj 180 120 *~ \$2;
#X obj 182 144 *~ 1;
#X obj 65 183 outlet~;
#X obj 181 184 outlet~;
#X obj 146 14 inlet;
#X text 181 10 velocity \, 1-125;
#X msg 121 126 \$1 6;
#X text 219 122 \$2 is a volume attenuator;
#X connect 0 0 2 0;
#X connect 2 0 14 0;
#X connect 3 0 2 1;
#X connect 3 0 13 1;
#X connect 4 0 18 0;
#X connect 5 0 6 0;
#X connect 6 0 18 0;
#X connect 7 0 12 0;
#X connect 8 0 0 0;
#X connect 9 0 8 0;
#X connect 9 0 5 0;
#X connect 9 0 7 0;
#X connect 9 0 4 0;
#X connect 10 0 5 1;
#X connect 12 0 13 0;
#X connect 13 0 15 0;
#X connect 16 0 4 0;
#X connect 18 0 3 0;
#X restore 37 217 pd stereoplay;
#N canvas 437 653 450 300 stereoplay 0;
#X obj 64 119 *~ \$2;
#X obj 66 143 *~ 1;
#X obj 121 145 line;
#X obj 111 105 f;
#X obj 135 85 del;
#X msg 136 105 0;
#X obj 184 45 tabplay~ \$1-smp-L;
#X obj 70 43 tabplay~ \$1-smp-R;
#X obj 93 13 inlet;
#X obj 147 64 r \$1-sampsiz;
#X text 95 -1 bang;
#X obj 180 120 *~ \$2;
#X obj 182 144 *~ 1;
#X obj 65 183 outlet~;
#X obj 181 184 outlet~;
#X obj 146 14 inlet;
#X text 181 10 velocity \, 1-125;
#X msg 121 126 \$1 6;
#X text 216 118 \$2 is a volume attenuator;
#X connect 0 0 1 0;
#X connect 1 0 13 0;
#X connect 2 0 1 1;
#X connect 2 0 12 1;
#X connect 3 0 17 0;
#X connect 4 0 5 0;
#X connect 5 0 17 0;
#X connect 6 0 11 0;
#X connect 7 0 0 0;
#X connect 8 0 7 0;
#X connect 8 0 4 0;
#X connect 8 0 6 0;
#X connect 8 0 3 0;
#X connect 9 0 4 1;
#X connect 11 0 12 0;
#X connect 12 0 14 0;
#X connect 15 0 3 0;
#X connect 17 0 2 0;
#X restore 135 216 pd stereoplay;
#N canvas 437 653 450 300 stereoplay 0;
#X obj 64 119 *~ \$2;
#X text 15 119 vol mod;
#X obj 66 143 *~ 1;
#X obj 121 145 line;
#X obj 111 105 f;
#X obj 135 85 del;
#X msg 136 105 0;
#X obj 184 45 tabplay~ \$1-smp-L;
#X obj 70 43 tabplay~ \$1-smp-R;
#X obj 93 13 inlet;
#X obj 147 64 r \$1-sampsiz;
#X text 95 -1 bang;
#X obj 180 120 *~ \$2;
#X obj 182 144 *~ 1;
#X obj 65 183 outlet~;
#X obj 181 184 outlet~;
#X obj 146 14 inlet;
#X text 181 10 velocity \, 1-125;
#X msg 121 126 \$1 6;
#X text 222 120 \$2 is a volume attenuator;
#X connect 0 0 2 0;
#X connect 2 0 14 0;
#X connect 3 0 2 1;
#X connect 3 0 13 1;
#X connect 4 0 18 0;
#X connect 5 0 6 0;
#X connect 6 0 18 0;
#X connect 7 0 12 0;
#X connect 8 0 0 0;
#X connect 9 0 8 0;
#X connect 9 0 5 0;
#X connect 9 0 7 0;
#X connect 9 0 4 0;
#X connect 10 0 5 1;
#X connect 12 0 13 0;
#X connect 13 0 15 0;
#X connect 16 0 4 0;
#X connect 18 0 3 0;
#X restore 80 237 pd stereoplay;
#N canvas 437 653 450 300 stereoplay 0;
#X obj 64 119 *~ \$2;
#X text 15 119 vol mod;
#X obj 66 143 *~ 1;
#X obj 121 145 line;
#X obj 111 105 f;
#X obj 135 85 del;
#X msg 136 105 0;
#X obj 184 45 tabplay~ \$1-smp-L;
#X obj 70 43 tabplay~ \$1-smp-R;
#X obj 93 13 inlet;
#X obj 147 64 r \$1-sampsiz;
#X text 95 -1 bang;
#X obj 180 120 *~ \$2;
#X obj 182 144 *~ 1;
#X obj 65 183 outlet~;
#X obj 181 184 outlet~;
#X obj 146 14 inlet;
#X text 181 10 velocity \, 1-125;
#X msg 121 126 \$1 6;
#X connect 0 0 2 0;
#X connect 2 0 14 0;
#X connect 3 0 2 1;
#X connect 3 0 13 1;
#X connect 4 0 18 0;
#X connect 5 0 6 0;
#X connect 6 0 18 0;
#X connect 7 0 12 0;
#X connect 8 0 0 0;
#X connect 9 0 8 0;
#X connect 9 0 5 0;
#X connect 9 0 7 0;
#X connect 9 0 4 0;
#X connect 10 0 5 1;
#X connect 12 0 13 0;
#X connect 13 0 15 0;
#X connect 16 0 4 0;
#X connect 18 0 3 0;
#X restore 179 237 pd stereoplay;
#X text 291 43 \$2 is a volume attenuator;
#X msg 516 199 ~/desktop/biets/PD/\$1.aif;
#X connect 0 0 17 0;
#X connect 2 0 12 0;
#X connect 3 0 4 0;
#X connect 4 0 6 0;
#X connect 4 0 7 0;
#X connect 5 0 3 0;
#X connect 6 0 3 1;
#X connect 7 0 29 0;
#X connect 7 1 30 0;
#X connect 7 2 31 0;
#X connect 7 3 32 0;
#X connect 9 0 12 0;
#X connect 9 0 27 2;
#X connect 12 0 16 0;
#X connect 12 1 28 0;
#X connect 15 0 5 0;
#X connect 15 1 20 0;
#X connect 16 0 34 0;
#X connect 17 1 15 0;
#X connect 19 0 18 0;
#X connect 20 0 29 1;
#X connect 20 0 30 1;
#X connect 20 0 31 1;
#X connect 20 0 32 1;
#X connect 23 0 16 0;
#X connect 24 0 12 0;
#X connect 27 0 19 0;
#X connect 28 0 27 1;
#X connect 29 0 8 0;
#X connect 29 1 13 0;
#X connect 30 0 8 0;
#X connect 30 1 13 0;
#X connect 31 0 8 0;
#X connect 31 1 13 0;
#X connect 32 0 8 0;
#X connect 32 1 13 0;
#X connect 34 0 27 0;
#X coords 0 -1 1 1 192 166 1 300 93;
