#N canvas 388 118 357 357 10;
#X obj 23 252 timer;
#X obj 23 230 t b b;
#X obj 43 33 bng 61 250 50 0 empty empty empty 17 7 0 10 -261234 -1
-1;
#X obj 151 268 metro;
#X floatatom 23 293 5 0 0 0 - - -;
#X obj 23 273 moses 5000;
#X obj 178 186 60;
#X obj 178 206 /;
#X floatatom 178 226 5 0 0 0 - - -;
#X obj 178 243 * 1000;
#X obj 178 144 moses 500;
#X obj 178 166 t b f;
#X obj 23 313 / 1000;
#X floatatom 52 101 7 0 0 0 BPM - -;
#X obj 35 374 /;
#X obj 23 353 60;
#X obj 23 333 t b f;
#X obj 165 24 loadbang;
#X obj 29 122 bng 87 250 50 0 empty empty empty 17 7 0 10 -4034 -1
-1;
#X text 122 302 bang on beat;
#X text 21 37 tap;
#X obj 27 2 r tempo;
#X obj 79 2 r alset;
#X obj 151 289 s puls;
#X obj 223 236 s secbeat;
#X obj 222 285 s milsbeat;
#X obj 223 264 f;
#X obj 248 266 r timeboop;
#X obj 165 44 130;
#X connect 0 0 5 0;
#X connect 1 0 0 0;
#X connect 1 1 0 1;
#X connect 2 0 1 0;
#X connect 3 0 18 0;
#X connect 3 0 23 0;
#X connect 4 0 12 0;
#X connect 5 0 4 0;
#X connect 6 0 7 0;
#X connect 7 0 8 0;
#X connect 7 0 24 0;
#X connect 8 0 9 0;
#X connect 9 0 3 1;
#X connect 9 0 26 0;
#X connect 10 0 11 0;
#X connect 11 0 6 0;
#X connect 11 1 7 1;
#X connect 12 0 16 0;
#X connect 13 0 10 0;
#X connect 14 0 13 0;
#X connect 15 0 14 0;
#X connect 16 0 15 0;
#X connect 16 1 14 1;
#X connect 17 0 3 0;
#X connect 17 0 28 0;
#X connect 21 0 13 0;
#X connect 22 0 13 0;
#X connect 26 0 25 0;
#X connect 27 0 26 0;
#X connect 28 0 13 0;
#X coords 0 -1 1 1 103 191 1 20 20;
